DataType=double
version=3
OpenSimVersion=4.2
endheader
time	ground_force_r_vx	ground_force_r_vy	ground_force_r_vz	ground_force_r_px	ground_force_r_py	ground_force_r_pz	ground_force_l_vx	ground_force_l_vy	ground_force_l_vz	ground_force_l_px	ground_force_l_py	ground_force_l_pz	ground_torque_r_x	ground_torque_r_y	ground_torque_r_z	ground_torque_l_x	ground_torque_l_y	ground_torque_l_z
0.868	-1.038351059894693	0.9409234330643995	0	0	0	0	0	0	0	0	0	0	0	0	0.002664259661606556	0	0	0
0.8707125653334267	-11.5308029288368	11.58973464357162	0	0	0	0	0	0	0	0	0	0	0	0	0.09202851801837149	0	0	0
0.8734251306668532	-67.09048032337253	65.33461932256971	0	0	0	0	0	0	0	0	0	0	0	0	0.6554552042582195	0	0	0
0.8761376960002799	-202.7916432232371	200.0934184246094	0	0	0	0	0	0	0	0	0	0	0	0	2.627153732036181	0	0	0
0.8788502613337065	-499.9656077953374	559.1869425466992	0	0	0	0	0	0	0	0	0	0	0	0	9.422995560432181	0	0	0
0.8815628266671331	-503.6676055818416	890.3688674426361	0	0	0	0	0	0	0	0	0	0	0	0	20.08184917301699	0	0	0
0.8842753920005597	-484.8610726808245	1142.122372281896	0	0	0	0	0	0	0	0	0	0	0	0	28.90548809863282	0	0	0
0.8869879573339864	-378.825096030735	1332.111386707312	0	0	0	0	0	0	0	0	0	0	0	0	37.31552904148698	0	0	0
0.889700522667413	-212.8546545278062	1487.405710194589	0	0	0	0	0	0	0	0	0	0	0	0	47.08337424656187	0	0	0
0.8924130880008396	-61.58161473984278	1615.456004445225	0	0	0	0	0	0	0	0	0	0	0	0	57.27138686694055	0	0	0
0.8951256533342662	10.05353257581916	1694.384751280146	0	0	0	0	0	0	0	0	0	0	0	0	65.90983763120045	0	0	0
0.8978382186676929	1.737320664816116	1725.420476752024	0	0	0	0	0	0	0	0	0	0	0	0	73.28243844155848	0	0	0
0.9005507840011194	-86.74610844865528	1723.418780967645	0	0	0	0	0	0	0	0	0	0	0	0	79.60900171394441	0	0	0
0.9032633493345461	-197.7697755879832	1689.141165381858	0	0	0	0	0	0	0	0	0	0	0	0	84.62113334840744	0	0	0
0.9059759146679727	-301.8863073286366	1646.062553746842	0	0	0	0	0	0	0	0	0	0	0	0	89.89505221588551	0	0	0
0.9086884800013993	-369.3904862185029	1603.716137113629	0	0	0	0	0	0	0	0	0	0	0	0	97.26605619710647	0	0	0
0.911401045334826	-387.6829969561527	1570.914634707686	0	0	0	0	0	0	0	0	0	0	0	0	107.8159253483422	0	0	0
0.9141136106682526	-369.7898021756616	1550.479609210399	0	0	0	0	0	0	0	0	0	0	0	0	121.1773507881041	0	0	0
0.9168261760016791	-337.086829740615	1542.709268450153	0	0	0	0	0	0	0	0	0	0	0	0	137.0954486923206	0	0	0
0.9195387413351058	-297.7511847391727	1554.308746311667	0	0	0	0	0	0	0	0	0	0	0	0	155.4982376938344	0	0	0
0.9222513066685325	-266.473954118956	1573.917804828623	0	0	0	0	0	0	0	0	0	0	0	0	175.0400275009619	0	0	0
0.9249638720019591	-236.5229364537663	1598.160777578379	0	0	0	0	0	0	0	0	0	0	0	0	195.0311941388511	0	0	0
0.9276764373353857	-210.1814192616268	1621.775801251189	0	0	0	0	0	0	0	0	0	0	0	0	214.5865126943034	0	0	0
0.9303890026688123	-174.3027953617408	1646.220445426306	0	0	0	0	0	0	0	0	0	0	0	0	234.7550858782334	0	0	0
0.933101568002239	-133.0715198025302	1673.285156271711	0	0	0	0	0	0	0	0	0	0	0	0	257.0124706313308	0	0	0
0.9358141333356655	-105.9267614114362	1677.334748984806	0	0	0	0	0	0	0	0	0	0	0	0	276.3242711686635	0	0	0
0.9385266986690922	-75.79823492969976	1686.819640285625	0	0	0	0	0	0	0	0	0	0	0	0	287.8872177136864	0	0	0
0.9412392640025188	-33.29501976928437	1694.839040253572	0	0	0	0	0	0	0	0	0	0	0	0	294.1247987444359	0	0	0
0.9439518293359455	-0.3619487377351476	1687.965026930391	0	0	0	0	0	0	0	0	0	0	0	0	298.0505403013735	0	0	0
0.946664394669372	29.14714350678307	1679.566509732497	0	0	0	0	0	0	0	0	0	0	0	0	301.4058136688221	0	0	0
0.9493769600027987	66.10484349893824	1668.653963431316	0	0	0	0	0	0	0	0	0	0	0	0	304.7306941756773	0	0	0
0.9520895253362253	100.8114056274333	1651.498406783526	0	0	0	0	0	0	0	0	0	0	0	0	307.6105608884597	0	0	0
0.9548020906696519	132.7060215455762	1627.054068731488	0	0	0	0	0	0	0	0	0	0	0	0	309.4186147876737	0	0	0
0.9575146560030785	164.753002832134	1597.642151412246	0	0	0	0	0	0	0	0	0	0	0	0	310.1957732162402	0	0	0
0.9602272213365052	200.2473065681688	1562.361669839125	0	0	0	0	0	0	0	0	0	0	0	0	309.8467265552009	0	0	0
0.9629397866699319	228.4659996950936	1516.924660514966	0	0	0	0	0	0	0	0	0	0	0	0	306.7897786117216	0	0	0
0.9656523520033584	254.04388746558	1480.285355862357	0	0	0	0	0	0	0	0	0	0	0	0	300.5357347062537	0	0	0
0.9683649173367851	285.1979541309679	1417.685779703473	0	0	0	0	0	0	0	0	0	0	0	0	289.7365309841778	0	0	0
0.9710774826702117	307.7040405385852	1358.877142670392	0	0	0	0	0	0	0	0	0	0	0	0	279.5117155829964	0	0	0
0.9737900480036383	329.4124848748657	1291.382267922869	0	0	0	0	0	0	0	0	0	0	0	0	267.7334821301528	0	0	0
0.9765026133370649	348.2992378631215	1219.918292245073	0	0	0	0	0	0	0	0	0	0	0	0	255.2368180898877	0	0	0
0.9792151786704916	364.0359436591103	1138.282196630111	0	0	0	0	0	0	0	0	0	0	0	0	240.8138427720256	0	0	0
0.9819277440039181	376.722480110729	1048.394316976689	0	0	0	0	0	0	0	0	0	0	0	0	224.8680340599617	0	0	0
0.9846403093373448	385.7930266525213	954.4192483522551	0	0	0	0	0	0	0	0	0	0	0	0	208.1784095192361	0	0	0
0.9873528746707714	392.9004188774466	864.8189404143712	0	0	0	0	0	0	0	0	0	0	0	0	192.4649964831961	0	0	0
0.990065440004198	388.4562234884871	766.2098282187894	0	0	0	0	0	0	0	0	0	0	0	0	174.4242853730342	0	0	0
0.9927780053376246	371.783166506249	645.6721532736076	0	0	0	0	0	0	0	0	0	0	0	0	151.5866538086758	0	0	0
0.9954905706710513	361.4920658823578	538.7294943609118	0	0	0	0	0	0	0	0	0	0	0	0	132.179314213371	0	0	0
0.9982031360044779	363.9851947755156	493.5493484253921	0	0	0	0	0	0	0	0	0	0	0	0	125.2782376154338	0	0	0
1.000915701337905	275.089589423372	405.9203930870576	0	0	0	0	0	0	0	0	0	0	0	0	100.5960781482875	0	0	0
1.003628266671331	52.66575849018447	143.8071939244428	0	0	0	0	0	0	0	0	0	0	0	0	29.93708821860591	0	0	0
1.006340832004758	5.243088434947456e-14	-4.993393234765876e-14	0	0	0	0	0	0	0	0	0	0	0	0	-6.778343681908298e-16	0	0	0
1.009053397338184	0	0	0	0	0	0	0	0	0	0	0	0	0	0	0	0	0	0
1.011765962671611	0	0	0	0	0	0	0	0	0	0	0	0	0	0	0	0	0	0
1.014478528005038	0	0	0	0	0	0	0	0	0	0	0	0	0	0	0	0	0	0
1.017191093338464	0	0	0	0	0	0	0	0	0	0	0	0	0	0	0	0	0	0
1.019903658671891	0	0	0	0	0	0	0	0	0	0	0	0	0	0	0	0	0	0
1.022616224005318	0	0	0	0	0	0	0	0	0	0	0	0	0	0	0	0	0	0
1.025328789338744	0	0	0	0	0	0	0	0	0	0	0	0	0	0	0	0	0	0
1.028041354672171	0	0	0	0	0	0	0	0	0	0	0	0	0	0	0	0	0	0
1.030753920005597	0	0	0	0	0	0	0	0	0	0	0	0	0	0	0	0	0	0
1.033466485339024	0	0	0	0	0	0	0	0	0	0	0	0	0	0	0	0	0	0
1.036179050672451	0	0	0	0	0	0	0	0	0	0	0	0	0	0	0	0	0	0
1.038891616005877	0	0	0	0	0	0	0	0	0	0	0	0	0	0	0	0	0	0
1.041604181339304	0	0	0	0	0	0	0	0	0	0	0	0	0	0	0	0	0	0
1.044316746672731	0	0	0	0	0	0	0	0	0	0	0	0	0	0	0	0	0	0
1.047029312006157	0	0	0	0	0	0	0	0	0	0	0	0	0	0	0	0	0	0
1.049741877339584	0	0	0	0	0	0	0	0	0	0	0	0	0	0	0	0	0	0
1.05245444267301	0	0	0	0	0	0	0	0	0	0	0	0	0	0	0	0	0	0
1.055167008006437	0	0	0	0	0	0	0	0	0	0	0	0	0	0	0	0	0	0
1.057879573339864	0	0	0	0	0	0	0	0	0	0	0	0	0	0	0	0	0	0
1.06059213867329	0	0	0	0	0	0	0	0	0	0	0	0	0	0	0	0	0	0
1.063304704006717	0	0	0	0	0	0	0	0	0	0	0	0	0	0	0	0	0	0
1.066017269340144	0	0	0	0	0	0	0	0	0	0	0	0	0	0	0	0	0	0
1.06872983467357	0	0	0	0	0	0	0	0	0	0	0	0	0	0	0	0	0	0
1.071442400006997	0	0	0	0	0	0	0	0	0	0	0	0	0	0	0	0	0	0
1.074154965340423	0	0	0	0	0	0	0	0	0	0	0	0	0	0	0	0	0	0
1.07686753067385	0	0	0	0	0	0	0	0	0	0	0	0	0	0	0	0	0	0
1.079580096007277	0	0	0	0	0	0	0	0	0	0	0	0	0	0	0	0	0	0
1.082292661340703	0	0	0	0	0	0	0	0	0	0	0	0	0	0	0	0	0	0
1.08500522667413	0	0	0	0	0	0	0	0	0	0	0	0	0	0	0	0	0	0
1.087717792007556	0	0	0	0	0	0	0	0	0	0	0	0	0	0	0	0	0	0
